<?xml version="1.0" encoding="UTF-8"?><svg id="a" xmlns="http://www.w3.org/2000/svg" viewBox="0 0 111.1553 36.418"><defs><style>.b{fill:#fff;}.c{fill:#00c7fc;}</style></defs><path class="c" d="M26.312,12.6929c-.2475-7.0513-6.0381-12.6929-13.1504-12.6929C6.0503,0,.2593,5.6416,.0117,12.6929h-.0117V29.959c0,1.8677,.9585,2.206,2.1304,.7529l.0014-.001,.1778-.2207c1.1719-1.4546,3.0757-1.4443,4.2304,.0249l.0679,.085,.0669,.0859c1.1553,1.4678,3.0615,1.4815,4.2378,.0313l.0737-.0903,.0733-.0909c1.1762-1.4511,3.0957-1.4467,4.2661,.0088l.1313,.1631v.001c1.1705,1.4541,3.0845,1.4541,4.2544,.001l.0015-.002,.1313-.1631c1.17-1.4555,3.0806-1.4521,4.2452,.0088l.0581,.0733,.0586,.0727c1.1645,1.4609,2.1172,1.1279,2.1172-.7407V12.6929h-.0113Zm-17.7319,1.1943c-1.2896,0-2.335-1.0454-2.335-2.3349,0-1.2896,1.0454-2.3355,2.335-2.3355,1.2895,0,2.3354,1.0459,2.3354,2.3355,0,1.2895-1.0459,2.3349-2.3354,2.3349Zm9.1636,0c-1.2896,0-2.3345-1.0454-2.3345-2.3349,0-1.2896,1.0449-2.3355,2.3345-2.3355,1.29,0,2.3354,1.0459,2.3354,2.3355,0,1.2895-1.0454,2.3349-2.3354,2.3349Z"/><g><path class="b" d="M37.6397,29.9692c-.8506,0-1.5332-.2573-2.0459-.771-.5142-.5131-.7701-1.1709-.7701-1.9736,0-1.8779,1.4195-3.4897,4.2603-4.8374,.1113-.9463,.272-2.2861,.4805-4.019,.4013-3.5616,.6416-5.6319,.7221-6.209,.6577-.4175,1.3438-.626,2.0576-.626,.7139,0,1.2554,.0405,1.6246,.1201l-1.7808,13.5977c-.4814,3.145-1.9976,4.7182-4.5483,4.7182Zm-1.0352-3.0571c0,.5772,.273,.8662,.8179,.8662,.2246,0,.4614-.1479,.7104-.4453,.2486-.2969,.4209-.7661,.5176-1.4082l.1924-1.4922c-1.4922,.8672-2.2383,1.6934-2.2383,2.4795Zm16.0283-2.2632l.77,1.1797c-.2402,.8667-.5693,1.5972-.9858,2.1904-.418,.5933-.8594,1.0186-1.3247,1.2754-.8179,.4493-1.5962,.6748-2.334,.6748-1.2837,0-2.2339-.3735-2.852-1.1206-.6182-.7456-.9424-1.7446-.9747-2.9961-.0483-2.021-.1684-3.2807-.3613-3.7783-.1924-.4961-.6338-.7783-1.3232-.8423l.1679-1.8051c.2891-.0479,.5137-.1119,.6744-.1924,.1601-.0801,.3686-.2403,.6255-.4815,.5454-.4814,.9462-1.6123,1.2036-3.394,.208-1.3472,.6372-2.3257,1.2876-2.9351,.6494-.6089,1.351-.915,2.1054-.915,.7539,0,1.42,.2217,1.9971,.6621,.5781,.4414,.8672,1.1509,.8672,2.1299,0,1.2998-.4697,2.4228-1.4082,3.3691-.9385,.9473-2.2422,1.8057-3.9107,2.5752,.5777,.273,1.0025,.7305,1.2754,1.3721,.2725,.6416,.4248,1.3164,.4576,2.0215,.0317,.706,.0556,1.3872,.0722,2.0459,.064,1.54,.521,2.3105,1.3716,2.3105,.9946,0,1.8608-1.1152,2.5991-3.3462Zm-2.3462-10.3481c-.1367-.1275-.2695-.1929-.3969-.1929-.1294,0-.229,.0171-.3008,.0488-.0728,.0318-.1372,.084-.1929,.1563-.0561,.0718-.1006,.1445-.1323,.2168-.0322,.0718-.0684,.1802-.1084,.3247-.0401,.144-.0723,.269-.0967,.373-.0234,.1045-.0601,.253-.1074,.4458-.0488,.1919-.1133,.4532-.1929,.7808-.0806,.3296-.1767,.6621-.2891,.9995,1.3482-.8667,2.0215-1.7329,2.0215-2.5991,0-.2407-.0683-.4248-.2041-.5537Z"/><path class="b" d="M63.3989,29.9443c-1.476,0-2.4546-.5131-2.936-1.54-.8345,1.0425-1.9053,1.5649-3.2129,1.5649-1.3081,0-2.4067-.4419-3.2974-1.3247-.8906-.8818-1.3354-2.0459-1.3354-3.4892,0-2.1016,.6172-3.7793,1.853-5.0303,1.2349-1.2515,2.7998-1.8765,4.6929-1.8765h.1445c.8018,0,1.5401,.1353,2.2139,.4087,.4331-.2734,.959-.4087,1.5762-.4087,.6176,0,1.0634,.0796,1.3359,.2398-.144,1.1875-.2969,2.355-.457,3.5019-.1612,1.1475-.273,1.961-.3369,2.4424-.1446,1.0913-.2173,1.8784-.2173,2.3584,0,.6426,.2568,.9629,.771,.9629,.4008,0,.8261-.2676,1.2754-.8066,.4487-.5367,.8422-1.3824,1.1792-2.5381,.4653,.417,.7856,.8828,.9624,1.3955-.4654,1.5249-1.0909,2.5952-1.8765,3.2129-.7871,.6181-1.5649,.9267-2.335,.9267Zm-3.875-9.8193c-1.0268,0-1.8413,.3887-2.4428,1.1675-.6016,.7783-.959,1.937-1.0708,3.4775-.0162,.1446-.024,.2813-.024,.4087,0,.7866,.1885,1.4121,.5655,1.8779,.3769,.4649,.8628,.6973,1.456,.6973,1.0108,0,1.773-.7139,2.2862-2.1416l.5781-5.1982c-.4658-.1929-.9151-.2891-1.3482-.2891Z"/><path class="b" d="M76.5742,22.46c1.2671,.9306,1.9019,2.0293,1.9019,3.2968,0,1.2676-.4986,2.2862-1.4927,3.0567-.9951,.77-2.2461,1.1557-3.7544,1.1557-.979,0-1.793-.2446-2.4429-.7348-.6499-.4893-.9746-1.0952-.9746-1.8169,0-.7222,.2403-1.2959,.7217-1.7212,.4815-.4243,1.0835-.6856,1.8052-.7817-.3369,.4809-.5054,.9423-.5054,1.3837,0,.4415,.1524,.7984,.457,1.0708,.3047,.273,.6895,.4092,1.1553,.4092,.4649,0,.8506-.1714,1.1553-.5176,.3047-.3447,.457-.7417,.457-1.1914,0-.7378-.3447-1.396-1.0351-1.9736-.417-.3364-.8658-.6538-1.3467-.9502-.4815-.2959-.7388-.4536-.771-.4692-.064-.0484-.1279-.0884-.1924-.1206-.2886,.3369-.706,.7988-1.2515,1.3842-.5454,.585-.9785,1.0552-1.2998,1.4068-.8984,.98-1.4033,1.7978-1.5161,2.4556-.0322,.1284-.0478,.373-.0478,.7338,0,.3604,.1084,.7344,.3247,1.1192,.2168,.3852,.4775,.6743,.7822,.8662,.3047,.1924,.6055,.3491,.9028,.4697,.2964,.1201,.5533,.2046,.7701,.2525,.2168,.0483,.3252,.0805,.3252,.0966,0,.1123-.1768,.2412-.5298,.3853-.6582,.2402-1.3443,.3603-2.0581,.3603-.7139,0-1.4073-.2563-2.0816-.77-.9145-.7055-1.3716-1.644-1.3716-2.8149,0-.7227,.1851-1.4361,.5538-2.1431,.6577-1.251,2.1982-2.9673,4.6206-5.1499-.5938-.5937-.8902-1.2261-.8902-1.9014,0-.6738,.2525-1.2431,.7578-1.7085,.5054-.4653,1.1026-.6982,1.793-.6982,.626,0,1.1709,.249,1.6367,.7456,.3047,.3374,.4571,.7627,.4571,1.2759,0,.5146-.1685,1.0913-.5054,1.7334,1.7163,.77,2.8799,1.3711,3.4897,1.8052Zm-5.2226-2.7198c.3852-.4013,.5781-.6899,.5781-.8667,0-.4004-.1772-.6176-.5298-.6499-.4014,0-.602,.2251-.602,.6739,0,.2724,.1845,.5537,.5537,.8427Z"/><path class="b" d="M81.1314,18.2236c1.0424,0,1.6518,.2647,1.8291,.794,.7534-.5293,1.7085-.794,2.8637-.794,1.1553,0,2.1499,.4737,2.9844,1.4204,.834,.9468,1.251,2.0533,1.251,3.3208,0,.1768-.0078,.3614-.0235,.5528-.1772,2.1025-.8823,3.7031-2.1181,4.8017-1.2354,1.0997-2.8482,1.6499-4.8374,1.6499-.4497,0-.9385-.0571-1.4683-.1694l-.77,6.6182h-3.1528c1.0268-8.8399,1.7168-14.8399,2.0703-18.002,.3369-.1279,.7939-.1924,1.3716-.1924Zm5.5351,4.9097c0-.7056-.1606-1.3315-.4814-1.8774-.3208-.545-.8179-.8174-1.4917-.8174-.9151,0-1.6128,.5937-2.0943,1.7807-.3208,2.3741-.5058,3.7544-.5532,4.1387-.0166,.4819,.1357,.8433,.457,1.083,.3208,.2412,.7139,.3614,1.1792,.3614,.8184,0,1.4922-.3687,2.022-1.107,.6411-.9145,.9624-2.102,.9624-3.562Z"/><path class="b" d="M97.2808,23.2295c.4892-.5938,.7343-1.1675,.7343-1.7197,0-.5547-.1489-.9312-.4458-1.1319-.2968-.2006-.6215-.3012-.9746-.3012-.7544,0-1.416,.4218-1.9853,1.2631-.5698,.8428-.854,1.8462-.854,3.0088,0,1.1641,.2759,2.0303,.8296,2.5987,.5537,.5703,1.2397,.855,2.0581,.855,1.2031,0,2.3584-.4175,3.4658-1.2515,1.1069-.834,2.0054-1.9248,2.6953-3.2735,.3525,.3379,.6733,.7544,.9624,1.252-.5293,1.2036-1.4678,2.3828-2.8154,3.5376-.6743,.561-1.4722,1.019-2.3946,1.373-.9233,.3521-1.874,.5293-2.8525,.5293-1.6045,0-2.8721-.4897-3.8027-1.4682-.9947-1.0601-1.4912-2.4155-1.4912-4.0684,0-1.6523,.6211-3.0957,1.8642-4.3315,1.2437-1.2354,2.732-1.8526,4.4649-1.8526,1.2353,0,2.2382,.2681,3.0083,.8052,.77,.5381,1.1631,1.2632,1.1792,2.1782,0,1.2359-.4932,2.2383-1.4805,3.0083-.9863,.7705-2.3379,1.3081-4.0547,1.6123l-.3369-1.4199c.9946-.208,1.7363-.6094,2.2261-1.2031Z"/><path class="b" d="M108.8926,21.4009c0-.7066-.3242-1.0596-.9741-1.0596s-1.1675,.418-1.5528,1.2529c1.7329,1.3628,2.5996,2.8951,2.5996,4.5957,0,1.2359-.3452,2.1744-1.0351,2.816-.69,.6416-1.5562,.9633-2.5986,.9633-1.0435,0-1.8057-.3252-2.2867-.9751-.4814-.6499-.7226-1.4726-.7226-2.4672,0-.3047,.0083-.5298,.0239-.6744l.8433-7.3398c.5771-.1758,1.1626-.2642,1.7568-.2642,.978,0,1.4678,.3604,1.4678,1.083v.0474c.6416-.7539,1.4599-1.1304,2.455-1.1304,.7222,0,1.2833,.1641,1.6841,.4927,.4009,.3291,.6021,.7666,.6021,1.3115,0,.5459-.2046,.9917-.6138,1.336-.4097,.3452-.9429,.5166-1.6006,.5166h-.0962c.0323-.1758,.0479-.3438,.0479-.5044Zm-2.9356,1.8764c-.289,2.3106-.4336,3.4747-.4336,3.4903,0,.6733,.2725,1.0107,.8184,1.0107,.7056,0,1.0591-.5693,1.0591-1.709,0-.9292-.4815-1.8613-1.4439-2.792Z"/></g><g><path class="c" d="M74.9107,14.9385h-.814v-4.2852h-1.4663v-.6982h3.7466v.6982h-1.4663v4.2852Z"/><path class="c" d="M80.4375,14.9385h-2.8193v-4.9834h2.8193v.688h-2.0044v1.3569h1.8784v.6812h-1.8784v1.5654h2.0044v.6919Z"/><path class="c" d="M84.2002,14.9385l-1.4453-4.1636h-.0274c.0386,.6191,.0577,1.1987,.0577,1.7402v2.4234h-.7393v-4.9834h1.1484l1.3843,3.9639h.02l1.4258-3.9639h1.1524v4.9834h-.7847v-2.4649c0-.248,.0063-.5703,.019-.9682,.0118-.3975,.023-.6382,.0328-.7222h-.0279l-1.4966,4.1553h-.7192Z"/><path class="c" d="M92.001,11.4609c0,.521-.1709,.92-.5112,1.1968-.3409,.2769-.8262,.4165-1.4556,.4165h-.5186v1.8643h-.8149v-4.9834h1.4355c.6226,0,1.0894,.1264,1.3995,.3808,.3105,.2544,.4653,.6299,.4653,1.125Zm-2.4854,.9268h.4331c.418,0,.7246-.0728,.9204-.2178,.1959-.145,.293-.3716,.293-.6811,0-.2862-.0874-.5005-.2622-.6407-.1753-.1416-.4477-.2124-.8179-.2124h-.5664v1.752Z"/><path class="c" d="M93.3145,14.9385v-4.9834h.8154v4.2842h2.1099v.6992h-2.9253Z"/><path class="c" d="M100.7749,14.9385l-.498-1.3838h-1.9053l-.4878,1.3838h-.8589l1.8648-5.0049h.8862l1.8647,5.0049h-.8657Zm-.7129-2.086l-.4668-1.3574c-.0342-.0903-.081-.2334-.1416-.4302-.06-.1948-.102-.3378-.1245-.4292-.0605,.2803-.1504,.5855-.269,.918l-.4502,1.2988h1.4521Z"/><path class="c" d="M104.4448,14.9385h-.8149v-4.2852h-1.4658v-.6982h3.7466v.6982h-1.4659v4.2852Z"/><path class="c" d="M109.8115,14.9385h-2.8183v-4.9834h2.8183v.688h-2.0039v1.3569h1.878v.6812h-1.878v1.5654h2.0039v.6919Z"/></g></svg>